<svg width="1793" height="334" viewBox="0 0 1793 334" fill="none" xmlns="http://www.w3.org/2000/svg">
<path d="M1745.68 124.463L1745.68 15.6973L1699.71 15.6973L1699.71 124.463L1745.68 124.463Z" fill="#07153A"/>
<path d="M1595.53 140.488C1634.33 140.488 1665.78 109.039 1665.78 70.2442C1665.78 31.4494 1634.33 0 1595.53 0C1556.74 0 1525.29 31.4494 1525.29 70.2442C1525.29 109.039 1556.74 140.488 1595.53 140.488Z" fill="#07153A"/>
<path d="M1722.76 299.051C1761.55 299.051 1793 267.601 1793 228.807C1793 190.012 1761.55 158.562 1722.76 158.562C1683.96 158.562 1652.51 190.012 1652.51 228.807C1652.51 267.601 1683.96 299.051 1722.76 299.051Z" fill="#07153A"/>
<path d="M215.262 176.074C169.62 176.074 134.983 210.063 134.983 255.382C134.983 300.701 168.973 333.719 215.91 333.719C248.28 333.719 275.472 318.181 289.067 292.285L291.01 288.4L265.437 274.481L263.495 278.689C255.726 295.522 237.274 306.204 216.234 306.204C187.424 306.204 169.62 286.134 165.735 265.093H294.57L294.894 261.209C295.218 258.296 295.218 257.324 295.218 254.735C295.541 210.387 260.905 176.074 215.262 176.074ZM167.03 239.197C173.181 218.156 192.603 203.266 215.262 203.266C239.217 203.266 258.315 217.832 263.818 239.197H167.03Z" fill="#07153A"/>
<path d="M443.143 278.689C435.051 296.169 417.894 306.528 396.853 306.528C369.015 306.528 347.65 284.192 347.65 254.735C347.65 225.278 368.691 202.942 396.853 202.942C417.571 202.942 435.051 213.3 443.143 230.781L445.086 234.989L471.306 221.393L469.363 217.509C456.092 190.965 429.871 176.074 397.501 176.074C352.182 176.074 317.869 210.063 317.869 255.059C317.869 300.054 351.535 333.719 396.206 333.719C429.224 333.719 455.12 318.829 469.363 292.285L471.306 288.4L445.086 274.805L443.143 278.689Z" fill="#07153A"/>
<path d="M626.047 237.252V330.479H596.589V240.165C596.589 216.211 584.289 202.939 561.629 202.939C538.322 202.939 523.432 219.124 523.432 244.05V330.479H493.975V132.048L523.108 115.215H523.432V191.933C534.762 181.898 549.976 176.395 567.456 176.395C602.092 176.395 626.047 201.321 626.047 237.252Z" fill="#07153A"/>
<path d="M772.368 225.949C784.668 216.561 792.437 201.671 792.437 184.838C792.437 154.733 767.188 133.045 732.552 133.045H648.712V160.884H667.163V168.329C657.128 168.329 648.712 176.422 648.712 186.78V330.506L740.321 330.829C775.281 330.829 800.854 307.522 800.854 275.799C800.854 254.111 789.848 235.012 772.368 225.949ZM678.493 160.56H730.286C750.679 160.56 762.009 170.919 762.009 188.722C762.009 204.908 749.708 215.59 731.257 215.59H678.169V160.56H678.493ZM739.35 302.667H678.493V243.429H739.673C758.448 243.429 770.749 255.406 770.749 273.533C770.749 291.984 759.096 302.667 739.35 302.667Z" fill="#07153A"/>
<path d="M851.032 193.541L849.737 179.945H823.517V330.468H852.974V238.536C852.974 218.142 863.656 207.46 883.726 207.46H901.53V177.355H889.553C873.691 177.355 860.095 183.182 851.032 193.541Z" fill="#07153A"/>
<path d="M985.365 176.074C940.046 176.074 904.438 211.034 904.438 255.382C904.438 300.054 939.075 333.719 984.717 333.719C1030.04 333.719 1065.64 299.083 1065.64 254.735C1065.64 210.711 1030.36 176.074 985.365 176.074ZM985.041 306.528C956.231 306.528 934.543 284.192 934.543 255.059C934.543 225.601 956.231 203.266 985.041 203.266C1013.53 203.266 1035.54 225.925 1035.54 255.059C1035.54 283.868 1013.53 306.528 985.041 306.528Z" fill="#07153A"/>
<path d="M1145.93 252.142L1227.18 330.156H1187.04L1118.09 263.148V330.156H1088.31V132.048L1117.76 115.215H1118.09V242.755L1187.36 179.632H1227.82L1145.93 252.142Z" fill="#07153A"/>
<path d="M1297.41 176.074C1251.77 176.074 1217.13 210.063 1217.13 255.382C1217.13 300.701 1251.12 333.719 1298.06 333.719C1330.43 333.719 1357.62 318.181 1370.89 292.285L1372.83 288.4L1347.26 274.481L1345.32 278.689C1337.55 295.522 1319.1 306.204 1298.06 306.204C1269.25 306.204 1251.44 286.134 1247.56 265.093H1376.39L1376.72 261.209C1377.04 258.296 1377.04 257.324 1377.04 254.735C1377.36 210.387 1343.05 176.074 1297.41 176.074ZM1248.85 239.197C1255 218.156 1274.43 203.266 1297.09 203.266C1321.04 203.266 1340.14 217.832 1345.32 239.197H1248.85Z" fill="#07153A"/>
<path d="M1427.55 193.541L1426.26 179.945H1400.04V330.468H1429.49V238.536C1429.49 218.142 1440.17 207.46 1460.24 207.46H1478.05V177.355H1465.75C1449.89 177.355 1436.29 183.182 1427.55 193.541Z" fill="#07153A"/>
<path d="M1574.18 243.627L1536.96 237.153C1520.13 234.239 1518.18 227.118 1518.18 221.615C1518.18 204.782 1540.2 202.84 1549.58 202.84C1564.8 202.84 1583.9 207.372 1588.75 228.412L1589.72 233.268L1616.59 223.233L1615.62 219.672C1609.47 192.481 1584.54 175.648 1550.23 175.648C1513.33 175.648 1489.37 193.776 1489.37 221.938C1489.37 244.598 1504.26 260.136 1530.48 264.344L1567.39 270.494C1579.69 272.436 1585.84 277.939 1585.84 286.032C1585.84 298.333 1572.57 306.426 1551.85 306.426C1529.19 306.426 1514.62 296.714 1510.74 279.234L1509.77 274.379L1482.9 284.414L1483.87 287.974C1490.34 316.137 1515.59 333.293 1551.53 333.293C1590.05 333.293 1615.94 313.871 1615.94 284.737C1615.94 263.049 1601.05 248.159 1574.18 243.627Z" fill="#07153A"/>
<path d="M155.055 132.725V160.563H92.2562V330.185H62.7989V184.194C62.7989 175.13 69.9205 168.009 78.9842 168.009V160.563H0V132.725H155.055Z" fill="#07153A"/>
</svg>
